<svg width="100px" height="100px" viewBox="0 0 4 4" fill="none" xmlns="http://www.w3.org/2000/svg"><path d="M0.25 1.45c0 -0.42 0 -0.63 0.082 -0.79a0.75 0.75 0 0 1 0.328 -0.328C0.82 0.25 1.03 0.25 1.45 0.25h1.1c0.42 0 0.63 0 0.79 0.082a0.75 0.75 0 0 1 0.328 0.328C3.75 0.82 3.75 1.03 3.75 1.45v1.1c0 0.42 0 0.63 -0.082 0.79a0.75 0.75 0 0 1 -0.328 0.328C3.18 3.75 2.97 3.75 2.55 3.75h-1.1c-0.42 0 -0.63 0 -0.79 -0.082a0.75 0.75 0 0 1 -0.328 -0.328C0.25 3.18 0.25 2.97 0.25 2.55z" fill="none"/><path d="M2.954 1.167A2.35 2.35 0 0 0 2.387 1c-0.024 0.042 -0.053 0.097 -0.073 0.142a2.212 2.212 0 0 0 -0.629 0A1.5 1.5 0 0 0 1.612 1a2.337 2.337 0 0 0 -0.568 0.168c-0.359 0.51 -0.456 1.007 -0.408 1.497a2.325 2.325 0 0 0 0.696 0.335c0.056 -0.072 0.106 -0.149 0.149 -0.231a1.5 1.5 0 0 1 -0.235 -0.107 1.125 1.125 0 0 0 0.058 -0.043c0.453 0.199 0.944 0.199 1.391 0q0.028 0.022 0.058 0.043c-0.074 0.042 -0.153 0.078 -0.235 0.107q0.065 0.122 0.149 0.231a2.325 2.325 0 0 0 0.696 -0.335c0.057 -0.568 -0.098 -1.06 -0.409 -1.497m-1.411 1.196c-0.136 0 -0.247 -0.119 -0.247 -0.264s0.109 -0.265 0.247 -0.265c0.138 0 0.25 0.119 0.247 0.265 0 0.145 -0.109 0.264 -0.247 0.264m0.913 0c-0.136 0 -0.247 -0.119 -0.247 -0.264s0.109 -0.265 0.247 -0.265c0.138 0 0.25 0.119 0.247 0.265 0 0.145 -0.109 0.264 -0.247 0.264" fill="#5865F2"/></svg>