<?xml version="1.0" encoding="UTF-8"?>
<svg id="Layer_2" data-name="Layer 2" xmlns="http://www.w3.org/2000/svg" viewBox="0 0 1516.48 205.93">
  <defs>
    <style>
      .cls-1 {
        fill: #fff;
      }
    </style>
  </defs>
  <g id="Layer_1-2" data-name="Layer 1">
    <g>
      <path class="cls-1" d="M118.16,4.15v197.63h-51.39v-83.01h-15.38v83.01H0V4.15h51.39v70.68h15.38V4.15h51.39Z"/>
      <path class="cls-1" d="M227.63,4.15l29.39,197.63h-52.52l-2.76-35.52h-18.38l-3.09,35.52h-53.13L153.35,4.15h74.28ZM200.39,131.23c-2.6-22.38-5.21-50.05-7.83-83.01-5.24,37.84-8.52,65.51-9.86,83.01h17.69Z"/>
      <path class="cls-1" d="M385.74,90.21h-51.39v-34.35c0-9.99-.55-16.22-1.65-18.7-1.1-2.48-3.52-3.72-7.26-3.72-4.23,0-6.92,1.51-8.06,4.52-1.14,3.01-1.71,9.52-1.71,19.53v91.8c0,9.6.57,15.87,1.71,18.8,1.14,2.93,3.7,4.39,7.69,4.39s6.33-1.47,7.51-4.4c1.18-2.94,1.77-9.83,1.77-20.68v-24.84h51.39v7.7c0,20.46-1.45,34.96-4.33,43.52-2.89,8.56-9.28,16.06-19.17,22.5-9.89,6.44-22.08,9.66-36.56,9.66s-27.47-2.73-37.23-8.18-16.24-13-19.41-22.64-4.76-24.15-4.76-43.52v-57.74c0-14.24.49-24.92,1.46-32.04.98-7.12,3.89-13.98,8.73-20.57,4.84-6.59,11.55-11.78,20.14-15.56,8.58-3.78,18.45-5.68,29.6-5.68,15.14,0,27.63,2.93,37.48,8.78,9.85,5.85,16.32,13.15,19.41,21.88,3.09,8.74,4.64,22.33,4.64,40.78v18.77Z"/>
      <path class="cls-1" d="M526.67,4.15l-29.48,89.23,32.29,108.4h-53.1l-20.81-84.72v84.72h-51.39V4.15h51.39v76.78l22.89-76.78h48.22Z"/>
      <path class="cls-1" d="M589.72,4.15v158.08h31.25v39.55h-82.64V4.15h51.39Z"/>
      <path class="cls-1" d="M728.48,4.15l29.39,197.63h-52.52l-2.76-35.52h-18.38l-3.09,35.52h-53.13l26.21-197.63h74.28ZM701.25,131.23c-2.6-22.38-5.21-50.05-7.83-83.01-5.24,37.84-8.52,65.51-9.86,83.01h17.69Z"/>
      <path class="cls-1" d="M766.6,4.15h51.27c16.19,0,28.46,1.26,36.8,3.78,8.34,2.52,15.08,7.62,20.2,15.31,5.13,7.69,7.69,20.07,7.69,37.15,0,11.55-1.81,19.6-5.43,24.15-3.62,4.55-10.76,8.05-21.42,10.49,11.88,2.69,19.94,7.15,24.17,13.37,4.23,6.23,6.35,15.78,6.35,28.64v18.32c0,13.36-1.53,23.25-4.58,29.68-3.05,6.43-7.92,10.83-14.59,13.19-6.67,2.36-20.35,3.54-41.02,3.54h-59.45V4.15ZM817.99,37.96v43.95c2.2-.08,3.91-.12,5.13-.12,5.04,0,8.26-1.24,9.64-3.72,1.38-2.48,2.08-9.58,2.08-21.3,0-6.18-.57-10.52-1.71-13-1.14-2.48-2.62-4.05-4.46-4.7-1.83-.65-5.39-1.02-10.68-1.1ZM817.99,112.67v55.3c7.24-.24,11.86-1.38,13.85-3.42,1.99-2.03,2.99-7.04,2.99-15.01v-18.43c0-8.46-.9-13.59-2.69-15.38-1.79-1.79-6.51-2.81-14.16-3.05Z"/>
      <path class="cls-1" d="M936.03,161.5v40.28h-37.23v-40.28h37.23Z"/>
      <path class="cls-1" d="M1098.39,4.15v39.55h-30.52v158.08h-51.39V43.7h-30.4V4.15h112.3Z"/>
      <path class="cls-1" d="M1227.54,119.87c0,19.86-.47,33.92-1.4,42.18-.94,8.26-3.87,15.81-8.79,22.64s-11.58,12.08-19.96,15.75c-8.38,3.66-18.15,5.49-29.3,5.49s-20.08-1.73-28.5-5.19c-8.42-3.46-15.2-8.65-20.33-15.56-5.13-6.92-8.18-14.44-9.16-22.58-.98-8.14-1.46-22.38-1.46-42.73v-33.81c0-19.86.47-33.91,1.4-42.18.93-8.26,3.86-15.81,8.79-22.64,4.92-6.84,11.58-12.08,19.96-15.75,8.38-3.66,18.15-5.49,29.3-5.49,10.58,0,20.08,1.73,28.5,5.19,8.42,3.46,15.2,8.65,20.33,15.56,5.13,6.92,8.18,14.45,9.16,22.58.98,8.14,1.46,22.38,1.46,42.72v33.81ZM1176.15,54.93c0-9.2-.51-15.08-1.53-17.64s-3.11-3.85-6.29-3.85c-2.69,0-4.74,1.04-6.17,3.11s-2.14,8.2-2.14,18.37v92.29c0,11.47.47,18.55,1.4,21.24s3.11,4.03,6.53,4.03,5.74-1.54,6.71-4.64c.98-3.09,1.46-10.46,1.46-22.09V54.93Z"/>
      <path class="cls-1" d="M1364.13,119.87c0,19.86-.47,33.92-1.4,42.18-.94,8.26-3.87,15.81-8.79,22.64s-11.58,12.08-19.96,15.75c-8.38,3.66-18.15,5.49-29.3,5.49s-20.08-1.73-28.5-5.19c-8.42-3.46-15.2-8.65-20.33-15.56-5.13-6.92-8.18-14.44-9.16-22.58-.98-8.14-1.46-22.38-1.46-42.73v-33.81c0-19.86.47-33.91,1.4-42.18.93-8.26,3.86-15.81,8.79-22.64,4.92-6.84,11.58-12.08,19.96-15.75,8.38-3.66,18.15-5.49,29.3-5.49,10.58,0,20.08,1.73,28.5,5.19,8.42,3.46,15.2,8.65,20.33,15.56,5.13,6.92,8.18,14.45,9.16,22.58.98,8.14,1.46,22.38,1.46,42.72v33.81ZM1312.74,54.93c0-9.2-.51-15.08-1.53-17.64s-3.11-3.85-6.29-3.85c-2.69,0-4.74,1.04-6.17,3.11s-2.14,8.2-2.14,18.37v92.29c0,11.47.47,18.55,1.4,21.24s3.11,4.03,6.53,4.03,5.74-1.54,6.71-4.64c.98-3.09,1.46-10.46,1.46-22.09V54.93Z"/>
      <path class="cls-1" d="M1434.69,4.15v158.08h31.25v39.55h-82.64V4.15h51.39Z"/>
      <path class="cls-1" d="M1516.48,161.5v40.28h-37.23v-40.28h37.23Z"/>
    </g>
  </g>
</svg>